<?xml version="1.0" standalone="no"?>
<!DOCTYPE svg PUBLIC "-//W3C//DTD SVG 20010904//EN"
 "http://www.w3.org/TR/2001/REC-SVG-20010904/DTD/svg10.dtd">
<svg version="1.0" xmlns="http://www.w3.org/2000/svg"
 width="240.000000pt" height="64.000000pt" viewBox="0 0 240.000000 64.000000"
 preserveAspectRatio="xMidYMid meet">

<g transform="translate(0.000000,64.000000) scale(0.100000,-0.100000)"
fill="#000000" stroke="none">
<path d="M239 570 c-106 -13 -175 -100 -167 -211 3 -39 11 -69 25 -87 20 -27
21 -27 142 -27 102 0 119 -2 104 -13 -13 -9 -47 -12 -116 -10 -53 2 -97 1 -97
-1 0 -14 137 -156 150 -156 20 0 177 178 196 222 19 44 18 127 -2 166 -45 90
-127 130 -235 117z m84 -175 c20 -35 37 -66 37 -69 0 -3 -36 -6 -80 -6 -44 0
-80 3 -80 6 0 11 72 134 78 134 4 0 24 -29 45 -65z"/>
<path d="M660 412 c-25 -25 -30 -39 -30 -77 0 -49 13 -82 39 -102 19 -15 105
-17 131 -3 13 7 21 7 25 0 3 -5 13 -10 21 -10 11 0 14 14 14 60 l0 61 -57 -3
c-46 -2 -59 -7 -61 -20 -3 -13 3 -18 22 -18 16 0 26 -6 26 -15 0 -23 -68 -25
-82 -2 -12 19 -9 82 4 95 17 17 63 15 78 -3 16 -19 70 -20 70 -1 0 8 -8 24
-19 37 -15 19 -30 24 -84 27 -63 4 -68 3 -97 -26z"/>
<path d="M980 330 l0 -110 35 0 c33 0 35 2 35 35 0 32 2 35 31 35 32 0 69 15
81 34 4 6 8 28 8 48 0 53 -26 68 -117 68 l-73 0 0 -110z m123 48 c7 -23 -4
-38 -29 -38 -19 0 -24 5 -24 25 0 20 5 25 24 25 13 0 26 -6 29 -12z"/>
<path d="M1300 420 c-44 -44 -18 -96 56 -115 54 -13 66 -38 21 -43 -18 -2 -29
2 -33 12 -4 10 -18 16 -35 16 -22 0 -29 -5 -29 -19 0 -32 38 -51 102 -51 67 0
98 22 98 68 0 27 -26 62 -46 62 -24 0 -84 22 -84 31 0 17 30 22 54 10 13 -7
36 -11 52 -9 l29 3 -27 28 c-23 23 -35 27 -83 27 -42 0 -60 -5 -75 -20z"/>
<path d="M1612 424 c-45 -31 -10 -62 37 -32 10 6 26 8 35 5 23 -9 20 -37 -4
-37 -15 0 -20 -7 -20 -25 0 -18 5 -25 19 -25 24 0 33 -13 25 -34 -7 -18 -59
-22 -69 -6 -10 16 -55 12 -55 -4 0 -26 42 -46 95 -46 41 0 56 5 73 23 27 29
28 51 3 76 -17 17 -18 21 -5 32 21 17 17 56 -8 73 -12 9 -41 16 -63 16 -22 0
-51 -7 -63 -16z"/>
<path d="M1895 415 c-21 -20 -25 -34 -25 -83 0 -84 23 -112 91 -112 82 0 123
58 80 111 -16 19 -28 24 -66 23 -41 -1 -46 1 -43 20 4 26 55 36 64 12 8 -21
54 -21 54 -1 0 55 -110 76 -155 30z m100 -115 c9 -27 -1 -40 -31 -40 -26 0
-40 20 -30 45 8 23 53 19 61 -5z"/>
<path d="M2168 380 c-3 -54 -1 -60 19 -65 13 -3 31 0 42 7 25 15 53 -6 49 -36
-4 -26 -49 -34 -68 -12 -14 18 -46 21 -55 6 -3 -5 5 -21 19 -35 33 -33 111
-36 144 -5 53 50 7 138 -65 127 -25 -4 -33 -2 -33 9 0 10 14 14 55 14 52 0 55
1 55 25 0 25 -1 25 -79 25 l-79 0 -4 -60z"/>
</g>
</svg>
